<?xml version="1.0"?>
<svg version="1.1" xmlns="http://www.w3.org/2000/svg" width="70" height="50" style=""><path fill="#ffff00" d="M30.203125,24.26171875l0,0.02734375l0-0.02734375q0.041015625,0.177734375-0.19140625,0.341796875t-0.451171875,0.1640625q-0.013671875,0-0.041015625-0.013671875t-0.041015625-0.013671875q-0.0546875-0.02734375-0.13671875-0.02734375q-0.02734375,0-0.0888671875,0.013671875t-0.0888671875,0.013671875l-0.08203125,0q-0.095703125,0-0.2255859375,0.041015625t-0.2255859375,0.041015625l-0.3828125,0l-0.177734375,0q-0.19140625-0.0546875-0.3828125,0.533203125q0,0.068359375-0.0546875,0.21875t-0.0546875,0.205078125q0,0.095703125,0.109375,0.13671875t0.109375,0.1640625l0,0.0546875q-0.109375,0.109375-0.13671875,0.1640625l0,0.232421875q0.02734375,0.08203125,0.02734375,0.24609375q0,0.232421875-0.02734375,0.314453125q0.02734375,0.08203125,0.02734375,0.30078125q0,0.232421875-0.02734375,0.341796875q0.0546875-0.02734375,0.13671875-0.02734375q0.1640625,0,0.1640625,0.13671875q0,0.109375-0.109375,0.21875q-0.109375,0.095703125-0.13671875,0.177734375t-0.0341796875,0.205078125t-0.0478515625,0.24609375q0.1640625-0.041015625,0.1640625,0.0546875q0,0.068359375-0.123046875,0.21875l-0.123046875,0.1640625q0.02734375,0.0546875,0.02734375,0.314453125q0,0.21875-0.02734375,0.30078125q0.0546875-0.02734375,0.1640625-0.02734375q0.1640625,0,0.1640625,0.150390625q0,0.19140625-0.1640625,0.35546875q-0.13671875,0.109375-0.13671875,0.314453125l0,0.21875q0,0.13671875-0.02734375,0.21875q0.013671875,0.232421875,0.0546875,0.68359375t0.0546875,0.669921875q0.0546875,0.328125,0.0546875,0.533203125q0,0.21875-0.02734375,0.30078125q-0.02734375,0.068359375-0.041015625,0.19140625t-0.041015625,0.177734375q0,0.068359375,0.0068359375,0.0751953125t0.0478515625,0.0205078125t0.08203125,0.041015625q0.08203125,0.08203125,0.08203125,0.1640625q0,0.13671875-0.08203125,0.259765625q-0.109375,0.19140625-0.13671875,0.423828125l0,0.08203125q0,0.109375-0.02734375,0.314453125t-0.02734375,0.30078125l0.095703125-0.068359375q0.095703125-0.08203125,0.150390625-0.08203125q0.013671875,0,0.08203125,0.068359375q0.02734375,0.02734375,0.02734375,0.08203125q0,0.109375-0.109375,0.1640625q-0.02734375,0.013671875-0.0615234375,0.041015625t-0.0478515625,0.041015625t-0.041015625,0.0341796875t-0.041015625,0.041015625l-0.02734375,0.041015625t-0.0205078125,0.0478515625t-0.0068359375,0.068359375l0,0.0546875q0.19140625-0.095703125,0.2734375-0.095703125q0.1640625,0,0.1640625,0.123046875q0,0.013671875-0.013671875,0.041015625t-0.013671875,0.041015625q-0.02734375,0.0546875-0.068359375,0.095703125t-0.095703125,0.08203125t-0.08203125,0.068359375q-0.08203125,0.0546875-0.08203125,0.08203125l0,0.123046875l0,0.0546875q0,0.109375-0.0615234375,0.369140625t-0.0615234375,0.2734375l0,0.08203125q0,0.1640625-0.02734375,0.19140625q0,0.1640625-0.13671875,0.369140625q0,0.13671875-0.02734375,0.19140625q-0.041015625,0.123046875-0.109375,0.3828125t-0.109375,0.3828125q0,0.13671875-0.177734375,0.4921875q-0.123046875,0.259765625-0.41015625,0.396484375l-0.84765625,0.396484375q0.109375,0.068359375,0.109375,0.21875q0,0.19140625-0.1640625,0.19140625l-0.0546875,0q-0.041015625,0.041015625-0.0478515625,0.232421875t-0.0615234375,0.24609375q-0.109375,0.0546875-0.13671875,0.0546875q-0.068359375,0-0.396484375-0.24609375q-0.02734375-0.02734375-0.08203125-0.02734375q-0.013671875,0-0.13671875,0.08203125q-0.068359375,0.041015625-0.205078125,0.1162109375t-0.19140625,0.1025390625q-0.068359375,0.13671875-0.21875,0.287109375q-0.1640625,0.1640625-0.369140625,0.1640625q-0.08203125,0-0.13671875-0.02734375t-0.123046875-0.02734375t-0.1572265625,0.095703125t-0.1708984375,0.123046875q-0.205078125,0.068359375-0.423828125,0.068359375l-0.08203125,0q-0.109375-0.02734375-0.24609375-0.02734375l-0.123046875,0q-0.095703125,0-0.2666015625,0.1025390625t-0.2255859375,0.1162109375q-0.109375,0.0546875-0.205078125,0.0546875q-0.123046875,0-0.1640625-0.08203125q-0.041015625-0.109375-0.19140625-0.109375q-0.041015625,0-0.13671875,0.013671875t-0.150390625,0.013671875q-0.19140625,0-0.560546875-0.150390625l-0.109375,0q-0.232421875,0-0.314453125-0.02734375q-0.4921875-0.0546875-0.779296875-0.0546875q-0.19140625,0-0.4375-0.0546875t-0.259765625-0.1640625q-0.02734375-0.013671875-0.150390625-0.1025390625t-0.19140625-0.0888671875l-0.109375,0.0546875q-0.02734375,0.02734375-0.08203125,0.02734375q-0.109375,0-0.109375-0.13671875q0-0.095703125,0.02734375-0.123046875q-0.041015625-0.02734375-0.150390625-0.08203125t-0.205078125-0.109375t-0.150390625-0.109375l-0.02734375,0q-0.02734375,0-0.1162109375,0.041015625t-0.1298828125,0.041015625q-0.095703125-0.02734375-0.095703125-0.109375q0-0.109375,0.095703125-0.205078125q-0.08203125-0.095703125-0.3212890625-0.2734375t-0.3349609375-0.314453125q-0.08203125-0.1640625-0.109375-0.1640625t-0.13671875,0.0546875q-0.0546875,0.02734375-0.13671875,0.02734375t-0.1435546875-0.1025390625t-0.0888671875-0.1162109375q-0.0546875-0.0546875-0.0546875-0.109375q0-0.068359375,0.1162109375-0.1982421875t0.1162109375-0.1982421875q-0.1640625,0.08203125-0.259765625,0.08203125q-0.13671875,0-0.13671875-0.13671875q0-0.150390625,0.21875-0.369140625q-0.13671875-0.478515625-0.13671875-0.587890625l0-0.109375q-0.08203125-0.205078125-0.08203125-0.451171875q0-0.21875,0.0751953125-0.615234375t0.0888671875-0.560546875q0-0.41015625,0.314453125-0.724609375q0.041015625-0.150390625,0.2119140625-0.35546875t0.3212890625-0.287109375q0.013671875-0.02734375,0.0341796875-0.0751953125t0.041015625-0.0751953125t0.0615234375-0.041015625q0.013671875-0.013671875,0.1162109375-0.0478515625t0.1298828125-0.1025390625q0.013671875-0.068359375,0.0615234375-0.123046875t0.1025390625-0.08203125t0.13671875-0.0546875t0.095703125-0.041015625q0.123046875-0.02734375,0.3349609375-0.1025390625t0.2802734375-0.0888671875q0.3828125-0.150390625,0.505859375-0.150390625q0.02734375,0,0.0615234375,0.013671875t0.0478515625,0.013671875q0.068359375,0.02734375,0.2939453125,0.0751953125t0.4033203125,0.109375t0.232421875,0.1298828125q0.13671875,0.02734375,0.287109375,0.109375t0.3076171875,0.205078125t0.2392578125,0.1640625q0.2734375,0.109375,0.5947265625,0.5263671875t0.2802734375,0.7041015625q0.0546875,0.21875,0.0546875,0.505859375l0,0.13671875l0.0546875,0.08203125q0.0546875,0,0.109375,0.0546875t0.0546875,0.109375q0,0.068359375-0.0546875,0.123046875q-0.013671875,0.041015625-0.2734375,0.21875q-0.095703125,0.08203125-0.1298828125,0.3623046875t-0.1845703125,0.3623046875q-0.505859375,0.259765625-0.505859375,0.478515625q-0.013671875,0.068359375-0.0478515625,0.1298828125t-0.1025390625,0.109375t-0.109375,0.0751953125t-0.1298828125,0.0751953125t-0.1162109375,0.0615234375q0.02734375,0.02734375,0.109375,0.02734375q0.150390625,0,0.259765625-0.0546875q0.08203125-0.08203125,0.1640625-0.08203125q0.068359375,0,0.19140625,0.041015625t0.177734375,0.041015625q0.08203125,0,0.109375-0.02734375q0.0546875-0.041015625,0.1572265625-0.0751953125t0.1572265625-0.0751953125q0.13671875-0.13671875,0.30078125-0.13671875q0.150390625-0.24609375,0.423828125-0.24609375q0.095703125,0,0.21875,0.08203125l0-0.08203125q0-0.259765625,0.109375-0.478515625q0.013671875-0.08203125,0.02734375-0.2802734375t0.02734375-0.2802734375q-0.013671875,0-0.0546875,0.013671875t-0.0546875,0.013671875q-0.24609375,0-0.24609375-0.13671875l0.0546875-0.109375q0.02734375-0.041015625,0.177734375-0.1640625t0.1640625-0.205078125q0-0.533203125,0.0546875-0.724609375q-0.0546875,0.0546875-0.150390625,0.0546875q-0.109375,0-0.109375-0.109375l0-0.02734375q0-0.041015625,0.0341796875-0.08203125t0.095703125-0.0888671875t0.0751953125-0.0615234375q0.08203125-0.08203125,0.08203125-0.1640625q0-0.02734375-0.013671875-0.109375t-0.013671875-0.123046875l0-0.0546875q-0.0546875-0.1640625-0.0546875-0.642578125q0-0.369140625,0.02734375-0.505859375q-0.095703125-0.328125-0.095703125-0.833984375q-0.02734375-0.109375-0.02734375-0.287109375q0-0.30078125,0.123046875-0.587890625q0.02734375-0.123046875,0.0341796875-0.3759765625t0.0205078125-0.3212890625q-0.0546875-0.546875-0.0546875-0.779296875l0-0.1640625q-0.068359375-0.341796875-0.068359375-0.642578125q0-0.1640625,0.068359375-0.505859375l0-0.177734375l0-0.3828125q-0.02734375-0.109375-0.02734375-0.423828125l0-0.1640625q-0.095703125-0.24609375-0.095703125-0.642578125q0-0.08203125,0.013671875-0.19140625t0.013671875-0.150390625q-0.0546875-0.21875-0.0546875-0.451171875q0-0.08203125,0.013671875-0.19140625t0.013671875-0.13671875l0-0.177734375q0-0.13671875,0.02734375-0.19140625q0.068359375-0.2734375,0.068359375-0.451171875l0-0.1640625q-0.095703125-0.24609375-0.205078125-0.697265625q-0.1640625,0-0.328125-0.08203125q-0.095703125,0-0.24609375,0.0478515625t-0.232421875,0.0615234375q-0.0546875,0.02734375-0.109375,0.02734375q-0.08203125,0-0.1708984375-0.08203125t-0.1435546875-0.109375q-0.24609375,0.08203125-0.30078125,0.08203125q-0.1640625,0-0.232421875-0.109375q-0.13671875,0.0546875-0.505859375,0.0546875l-0.35546875,0q-0.587890625-0.08203125-0.587890625-0.73828125q0-0.19140625,0.02734375-0.2734375q0-0.02734375-0.013671875-0.068359375t-0.013671875-0.068359375q0-0.068359375,0.02734375-0.21875t0.02734375-0.205078125q0-0.109375-0.02734375-0.13671875q-0.328125,0.109375-0.341796875,0.109375q-0.08203125,0-0.08203125-0.109375q0-0.095703125,0.2734375-0.369140625l0.123046875-0.13671875l0-0.08203125l0-0.08203125q0-0.02734375-0.013671875-0.1025390625t-0.013671875-0.1025390625q0-0.287109375,0.1162109375-0.4443359375t0.3759765625-0.1435546875q0.259765625,0,0.287109375,0.02734375q0.328125-0.08203125,0.341796875-0.08203125q0.13671875,0,0.21875,0.08203125q0.08203125-0.08203125,0.2734375-0.08203125l0.068359375,0q0.0546875,0.02734375,0.109375,0.02734375q0.02734375,0,0.1025390625-0.013671875t0.1162109375-0.013671875l0.0546875,0q0.0546875,0,0.1845703125,0.02734375t0.1845703125,0.02734375q0.46484375,0,0.642578125,0.109375q0.2734375-0.109375,0.451171875-0.109375q0.02734375,0,0.0751953125,0.013671875t0.0615234375,0.013671875q0.0546875-0.013671875,0.205078125-0.041015625t0.287109375-0.0478515625t0.259765625-0.0205078125q0.205078125,0,0.369140625,0.08203125q0.0546875,0,0.1640625-0.0546875t0.1640625-0.0546875q0.041015625,0,0.150390625,0.0546875q0.095703125,0,0.4375,0.13671875q0.013671875,0,0.0478515625-0.013671875t0.0478515625-0.013671875q0.08203125,0,0.30078125,0.109375q0.1640625-0.109375,0.451171875-0.109375l0.08203125,0q0.08203125-0.02734375,0.21875-0.02734375q0.123046875,0,0.4033203125,0.041015625t0.3896484375,0.041015625q0.013671875,0,0.041015625-0.013671875t0.041015625-0.013671875q0.068359375,0,0.150390625,0.0341796875t0.123046875,0.0478515625q0.095703125,0.013671875,0.2802734375-0.08203125t0.2802734375-0.08203125l0.177734375,0q0.095703125,0,0.2939453125-0.02734375t0.2939453125-0.02734375q0.13671875,0,0.19140625,0.02734375l0.109375,0q0.08203125,0,0.2529296875-0.02734375t0.2529296875-0.02734375q0.150390625,0,0.314453125,0.08203125q0.02734375-0.02734375,0.109375-0.02734375q0.068359375,0,0.2255859375,0.0546875t0.2119140625,0.0546875q0.095703125,0,0.19140625,0.1162109375t0.095703125,0.2255859375q0.02734375,0.0546875,0.02734375,0.2734375q0,0.369140625-0.0546875,0.533203125q0.02734375,0.08203125,0.02734375,0.287109375q0,0.287109375-0.0546875,0.505859375q0.109375,0.3828125,0.109375,0.751953125z M29.505859375,22.333984375q0-0.150390625-0.232421875-0.150390625q-0.109375,0-0.1640625-0.02734375q-0.0546875,0.02734375-0.35546875,0.02734375q-0.341796875,0.232421875-0.451171875,0.314453125q-1.72265625,1.17578125-2.556640625,1.763671875q-0.19140625,0.150390625-0.6220703125,0.451171875t-0.68359375,0.4853515625t-0.587890625,0.4716796875t-0.5947265625,0.546875q1.162109375-0.943359375,3.759765625-2.40625q0.328125-0.19140625,1.927734375-1.0390625q0.068359375-0.041015625,0.1845703125-0.0888671875t0.1845703125-0.08203125t0.123046875-0.1025390625t0.068359375-0.1640625z M27.126953125,24.958984375q0-0.0546875,0.0546875-0.109375q-1.763671875,1.01171875-2.4609375,1.44921875q-0.21875,0.123046875-0.669921875,0.396484375t-0.68359375,0.396484375q-0.02734375,0.013671875-0.1708984375,0.095703125t-0.2119140625,0.150390625t-0.08203125,0.13671875q0.02734375,0.08203125,0.02734375,0.341796875q0.0546875-0.041015625,0.314453125-0.24609375t0.341796875-0.2666015625t0.314453125-0.2392578125t0.341796875-0.259765625t0.3212890625-0.232421875t0.35546875-0.2392578125t0.3349609375-0.205078125t0.369140625-0.2119140625t0.35546875-0.177734375q0.451171875-0.19140625,0.587890625-0.19140625q0.123046875,0,0.2255859375-0.0615234375t0.1435546875-0.1298828125t0.1025390625-0.2119140625t0.0888671875-0.1845703125z M27.017578125,26.83203125l-0.123046875,0.095703125l0.123046875-0.095703125q-0.35546875,0.24609375-0.84765625,0.642578125q0.041015625-0.02734375,0.287109375-0.1640625t0.4033203125-0.259765625t0.1572265625-0.21875z M26.703125,27.419921875l-0.19140625,0.123046875l0.19140625-0.123046875q-0.51953125,0.328125-1.4560546875,1.01171875t-1.3466796875,0.95703125q-0.478515625,0.314453125-0.806640625,0.451171875q-0.1640625,0.068359375-0.1640625,0.30078125q0,0.1640625,0.02734375,0.21875q2.146484375-1.654296875,3.8828125-3.021484375q-0.02734375,0.013671875-0.068359375,0.041015625t-0.068359375,0.041015625z M25.6640625,29.798828125q0.08203125-0.0546875,0.3076171875-0.177734375t0.3349609375-0.205078125q0.123046875-0.041015625,0.3486328125-0.1572265625t0.2392578125-0.1845703125q-0.21875,0.123046875-0.6220703125,0.3623046875t-0.6083984375,0.3623046875z M26.990234375,31.904296875q-0.505859375,0.4375-1.53125,1.2919921875t-1.53125,1.2783203125q1.681640625-1.09375,2.802734375-1.640625q0.0546875,0,0.1982421875-0.0546875t0.1435546875-0.095703125q-0.08203125-0.287109375-0.08203125-0.779296875z M26.921875,30.865234375q0-0.013671875-0.4580078125,0.2939453125t-0.5673828125,0.4033203125q-0.177734375,0.123046875-0.533203125,0.396484375t-0.533203125,0.396484375q-0.095703125,0.068359375-0.4306640625,0.3212890625t-0.4853515625,0.3759765625t-0.396484375,0.341796875t-0.423828125,0.41015625q0.328125-0.19140625,1.1484375-0.6630859375t1.2578125-0.7314453125q0.19140625-0.095703125,0.6220703125-0.3486328125t0.6630859375-0.3759765625q0.1640625-0.095703125,0.1640625-0.259765625q0-0.0546875-0.02734375-0.1845703125t-0.02734375-0.1982421875q0-0.123046875,0.02734375-0.177734375z M26.921875,30.33203125l-0.02734375,0.02734375q0.02734375,0,0.02734375-0.02734375q-0.546875,0.328125-1.544921875,1.0390625t-1.4765625,1.01171875q-0.423828125,0.30078125-0.642578125,0.328125q-0.21875,0.041015625-0.21875-0.109375q0-0.19140625,0.21875-0.41015625q-0.232421875,0.123046875-0.30078125,0.24609375q0,0.232421875-0.0546875,0.451171875q0,0.478515625,0.0546875,0.669921875q0.1640625-0.1640625,0.369140625-0.3486328125t0.3486328125-0.30078125t0.4169921875-0.3212890625t0.369140625-0.287109375q0.57421875-0.451171875,1.408203125-1.0390625q0.041015625-0.02734375,0.35546875-0.2255859375t0.505859375-0.3759765625t0.19140625-0.328125z M22.861328125,26.50390625l0,0.02734375l0-0.02734375l0,0.0546875l0-0.0546875z M22.861328125,27.091796875l0.123046875-0.08203125q-0.095703125,0.0546875-0.123046875,0.08203125q0.232421875-0.13671875,0.984375-0.587890625q-0.109375,0.041015625-0.396484375,0.1025390625t-0.423828125,0.1572265625t-0.1640625,0.328125z M23.06640625,25.998046875l0.0546875-0.0546875l-0.0546875,0.08203125l0-0.02734375q0.341796875-0.341796875,0.8271484375-0.724609375t0.73828125-0.5673828125t0.9638671875-0.669921875t0.806640625-0.5537109375q-0.3828125,0.232421875-1.1416015625,0.6630859375t-1.1279296875,0.6494140625q-0.177734375,0.095703125-0.546875,0.3076171875t-0.546875,0.3076171875q-0.13671875,0.095703125-0.13671875,0.697265625l0,0.109375q0.02734375-0.041015625,0.08203125-0.109375t0.08203125-0.109375z M22.9296875,25.068359375q0.533203125-0.546875,2.009765625-1.791015625q-1.408203125,0.875-1.955078125,1.1484375q-0.02734375,0.013671875-0.1162109375,0.0341796875t-0.1162109375,0.0478515625t-0.02734375,0.095703125l0,0.0546875q0.095703125,0.259765625,0.13671875,0.46484375q0-0.013671875,0.02734375-0.02734375t0.041015625-0.02734375z M25.74609375,22.443359375l-0.02734375,0q0.02734375-0.02734375,0.0546875-0.02734375l-0.02734375,0.02734375q-0.02734375,0.013671875-0.068359375,0.041015625t-0.068359375,0.041015625q0.068359375-0.041015625,0.1982421875-0.123046875t0.1982421875-0.123046875q-0.095703125,0-0.259765625,0.1640625z M19.5390625,23.673828125q0.150390625-0.21875,0.451171875-0.68359375t0.46484375-0.68359375q-0.0546875,0.041015625-0.30078125,0.1640625t-0.423828125,0.24609375t-0.19140625,0.205078125q0,0.02734375,0.013671875,0.08203125t0.013671875,0.08203125q0,0.068359375-0.02734375,0.21875t-0.02734375,0.232421875q0,0.013671875,0.013671875,0.0615234375t0.013671875,0.0751953125z M19.51171875,22.18359375l0,0.095703125q0.08203125-0.041015625,0.13671875-0.095703125q-0.013671875,0-0.0546875-0.013671875t-0.0546875-0.013671875q-0.02734375,0-0.02734375,0.02734375z M23.0390625,31.849609375l0.1640625-0.109375l-0.1640625,0.109375q0.546875-0.423828125,1.44921875-1.06640625q-0.62890625,0.3828125-0.916015625,0.533203125q-0.0546875,0.041015625-0.19140625,0.1025390625t-0.1845703125,0.1025390625t-0.1025390625,0.123046875t-0.0546875,0.205078125z M24.994140625,31.31640625q-1.134765625,0.7109375-1.4765625,1.01171875q0.259765625-0.150390625,1.4765625-1.01171875z M25.390625,30.755859375q0.123046875-0.068359375,0.3896484375-0.2255859375t0.3896484375-0.2255859375q-0.62890625,0.35546875-0.779296875,0.451171875z M27.017578125,28.376953125l-0.423828125,0.314453125q0.109375-0.095703125,0.423828125-0.314453125l-0.02734375-0.02734375q-0.068359375,0-0.396484375,0.21875q-0.2734375,0.13671875-0.560546875,0.341796875q-0.478515625,0.259765625-1.17578125,0.697265625q-0.259765625,0.150390625-0.7587890625,0.4580078125t-0.5810546875,0.3623046875q-0.02734375,0.013671875-0.1162109375,0.0615234375t-0.123046875,0.068359375t-0.0888671875,0.0615234375t-0.08203125,0.0751953125t-0.0478515625,0.0888671875t-0.0205078125,0.109375l0,0.08203125q2.775390625-1.72265625,3.978515625-2.59765625z M22.984375,29.416015625l0.3828125-0.287109375q0-0.013671875-0.095703125,0.0546875t-0.19140625,0.1435546875t-0.095703125,0.0888671875q0.4921875-0.35546875,1.4697265625-1.0595703125t1.4697265625-1.0458984375q-1.640625,1.01171875-2.3515625,1.380859375q-0.068359375,0.041015625-0.478515625,0.24609375q-0.109375,0.041015625-0.109375,0.1640625l0,0.205078125l0,0.109375z M22.95703125,28.513671875l0.02734375,0l-0.02734375,0q0.287109375-0.21875,1.5791015625-1.052734375t1.8935546875-1.408203125q-0.943359375,0.615234375-2.501953125,1.517578125q-0.546875,0.328125-0.861328125,0.4921875q-0.13671875,0.068359375-0.13671875,0.259765625q0,0.02734375,0.013671875,0.0888671875t0.013671875,0.1025390625z M24.802734375,26.75l0.21875-0.13671875q-0.013671875,0-0.0341796875,0.013671875t-0.0751953125,0.0546875t-0.109375,0.068359375q0.177734375-0.109375,0.5400390625-0.3349609375t0.5537109375-0.3349609375q-0.232421875,0.109375-0.615234375,0.3623046875t-0.478515625,0.3076171875z M26.921875,24.685546875l0.095703125-0.0546875q-0.041015625,0-0.095703125,0.0546875q0.314453125-0.19140625,0.396484375-0.287109375q-0.068359375,0.041015625-0.1982421875,0.1435546875t-0.1982421875,0.1435546875z M27.55078125,24.234375l0.02734375,0l-0.02734375,0q0.109375,0,0.109375-0.08203125q-0.0546875,0.0546875-0.109375,0.08203125z M26.6484375,24.53515625l0.08203125-0.0546875l-0.751953125,0.505859375q0.1640625-0.109375,0.669921875-0.451171875q0.177734375-0.123046875,0.65625-0.451171875t0.73828125-0.51953125q-2.953125,1.599609375-4.498046875,2.775390625q0.396484375-0.13671875,0.8681640625-0.3828125t0.697265625-0.3828125t0.8544921875-0.5673828125t0.68359375-0.4716796875z M26.990234375,22.388671875q-0.205078125,0-0.369140625-0.0546875l-0.0546875,0q-0.123046875,0-0.369140625,0.24609375q-0.1640625,0.123046875-0.943359375,0.806640625q-0.861328125,0.68359375-1.626953125,1.380859375q0.4921875-0.287109375,1.4013671875-0.8134765625t1.654296875-0.95703125t1.4150390625-0.8134765625q-0.13671875-0.02734375-0.4375,0.1162109375t-0.451171875,0.1435546875q-0.0546875,0-0.21875-0.0546875z M21.248046875,22.18359375l0.02734375,0l-0.02734375,0q-0.02734375,0-0.0751953125-0.013671875t-0.0751953125-0.013671875q-0.123046875,0-0.2255859375,0.0751953125t-0.1640625,0.1572265625t-0.1572265625,0.24609375t-0.150390625,0.232421875q-0.109375,0.19140625-0.341796875,0.5263671875t-0.30078125,0.4443359375q1.271484375-0.90234375,2.296875-1.53125q-0.0546875-0.013671875-0.3828125-0.0341796875t-0.423828125-0.0888671875z M22.984375,34.87109375q0,0.041015625,0.1708984375-0.095703125t0.2392578125-0.205078125q0.751953125-0.642578125,0.984375-0.8203125q0.41015625-0.35546875,1.39453125-1.17578125q-1.353515625,0.79296875-1.72265625,0.984375q-0.1640625,0.095703125-0.4716796875,0.2802734375t-0.4580078125,0.2802734375q-0.1640625,0.068359375-0.1640625,0.30078125q0,0.0546875,0.013671875,0.1845703125t0.013671875,0.1845703125l0,0.08203125z M26.224609375,33.421875q-0.505859375,0.259765625-0.505859375,0.30078125q0.232421875-0.109375,0.505859375-0.30078125q-1.134765625,0.615234375-2.119140625,1.2578125q-0.0546875,0.041015625-0.35546875,0.19140625t-0.505859375,0.30078125t-0.232421875,0.287109375q0.02734375,0.0546875,0.02734375,0.13671875q0,0.150390625-0.0546875,0.369140625q1.599609375-1.28515625,3.240234375-2.54296875z M26.7578125,34.283203125l0.02734375,0l-0.02734375,0q0.013671875,0.0546875,0,0.109375t-0.0615234375,0.109375t-0.109375,0.109375t-0.150390625,0.1162109375t-0.1640625,0.1025390625t-0.1708984375,0.0888671875t-0.150390625,0.08203125t-0.123046875,0.068359375t-0.08203125,0.0341796875q-0.3828125,0.232421875-1.09375,0.6494140625t-0.970703125,0.5810546875q-0.041015625,0.02734375-0.2529296875,0.13671875t-0.3349609375,0.205078125t-0.1640625,0.19140625q0.02734375,0.0546875,0.02734375,0.24609375q0,0.1640625-0.02734375,0.24609375q0.478515625-0.35546875,1.4013671875-0.9775390625t1.0869140625-0.7314453125q0.123046875-0.08203125,0.5673828125-0.4033203125t0.6904296875-0.5126953125q0.314453125-0.259765625,0.314453125-0.396484375q0-0.08203125-0.041015625-0.1640625q-0.08203125,0.0546875-0.19140625,0.109375z M26.921875,34.92578125l0,0.02734375l0-0.02734375l0-0.02734375q-0.02734375,0-0.0888671875,0.0546875t-0.13671875,0.123046875t-0.1025390625,0.08203125q-0.08203125,0.0546875-0.2529296875,0.177734375t-0.2529296875,0.177734375q-0.02734375,0.013671875-0.4716796875,0.328125t-0.6767578125,0.46484375q-0.19140625,0.13671875-0.6630859375,0.4443359375t-0.7314453125,0.4990234375q-0.013671875,0.013671875-0.2119140625,0.1298828125t-0.3349609375,0.2255859375t-0.13671875,0.177734375q0.62890625-0.41015625,2.720703125-1.708984375q0.1640625-0.095703125,0.5126953125-0.3486328125t0.5537109375-0.3759765625q0.1640625-0.08203125,0.21875-0.08203125q0.0546875-0.02734375,0.0546875-0.1640625l0-0.177734375z M22.751953125,38.1796875l0.02734375,0l-0.02734375,0l-0.0546875,0.0546875q0.02734375-0.013671875,0.232421875-0.08203125q-0.02734375,0-0.0888671875,0.013671875t-0.0888671875,0.013671875z M22.314453125,38.876953125l-0.041015625,0.02734375q0.068359375,0,0.068359375-0.02734375l-0.02734375,0q-0.02734375,0.0546875-0.109375,0.1162109375t-0.095703125,0.0751953125q0.341796875-0.205078125,0.396484375-0.24609375q-0.109375,0.0546875-0.19140625,0.0546875z M22.697265625,38.658203125q-0.013671875,0.013671875-0.02734375,0.041015625t-0.02734375,0.041015625q0.21875-0.13671875,0.669921875-0.423828125t0.669921875-0.423828125q-0.46484375,0.2734375-0.861328125,0.451171875q-0.041015625,0.02734375-0.1572265625,0.068359375t-0.1572265625,0.068359375q-0.068359375,0.013671875-0.08203125,0.08203125t-0.02734375,0.095703125z M20.90625,39.4921875l0.08203125,0l-0.08203125,0q-0.08203125,0-0.177734375,0.0478515625t-0.1572265625,0.095703125t-0.1640625,0.150390625t-0.1435546875,0.1298828125q-0.642578125,0.505859375-1.01171875,0.779296875q0.150390625,0.013671875,0.328125-0.0615234375t0.4306640625-0.2529296875t0.2802734375-0.19140625q1.39453125-0.8203125,1.544921875-0.916015625q-0.013671875,0-0.0546875,0.013671875t-0.0546875,0.013671875q-0.0546875,0-0.095703125-0.013671875t-0.095703125-0.0341796875t-0.095703125-0.0341796875q-0.2734375,0.2734375-0.533203125,0.2734375z M19.8671875,39.46484375q-0.123046875-0.02734375-0.41015625-0.24609375q-0.02734375,0.1640625-0.1162109375,0.314453125t-0.30078125,0.396484375t-0.2255859375,0.259765625q0.615234375-0.41015625,1.134765625-0.697265625q-0.02734375-0.02734375-0.08203125-0.02734375z M16.791015625,38.822265625q0.341796875-0.232421875,1.052734375-0.6767578125t1.052734375-0.6630859375q-0.3828125,0.232421875-1.134765625,0.68359375t-1.134765625,0.68359375q0,0.02734375,0.02734375,0.0546875q0.02734375-0.02734375,0.13671875-0.08203125z M18.25390625,38.603515625l-0.150390625,0.08203125q0.095703125-0.0546875,0.150390625-0.08203125l-0.73828125,0.41015625z M16.2578125,37.892578125q0-0.02734375,0.123046875-0.150390625t0.287109375-0.2734375l0.150390625-0.13671875q0.095703125-0.08203125,0.41015625-0.3759765625t0.4921875-0.4306640625q0.875-0.779296875,1.736328125-1.490234375q-0.697265625,0.369140625-2.501953125,1.681640625q-0.02734375,0.02734375-0.177734375,0.109375t-0.2529296875,0.150390625t-0.205078125,0.1640625t-0.1162109375,0.1640625q0,0.08203125,0.02734375,0.2529296875t0.02734375,0.2529296875l0,0.08203125z M17.966796875,34.734375l-0.02734375,0.0546875q0.02734375,0,0.02734375-0.0546875q-0.2734375,0.341796875-0.328125,0.396484375q0.205078125-0.1640625,0.4375-0.396484375l-0.109375,0z M16.490234375,36.1015625q0,0.013671875,0.123046875-0.0888671875t0.177734375-0.1572265625q0.068359375-0.0546875,0.2119140625-0.1845703125t0.2119140625-0.1845703125q-0.041015625,0.041015625-0.2802734375,0.0751953125t-0.2529296875,0.0888671875q-0.08203125,0.341796875-0.19140625,0.451171875z M16.626953125,38.1796875l1.421875-0.8203125q-0.587890625,0.314453125-1.421875,0.8203125z M16.544921875,38.603515625l-0.02734375,0l0.02734375,0l-0.0546875,0.02734375q0.02734375-0.02734375,0.0546875-0.02734375z M19.142578125,39.013671875l-0.08203125,0.0546875l0.08203125-0.0546875q-0.02734375,0.013671875-0.642578125,0.478515625q0.068359375-0.041015625,0.314453125-0.205078125t0.3828125-0.24609375q-0.013671875,0-0.02734375-0.013671875t-0.02734375-0.013671875z M20.099609375,35.158203125q-0.150390625-0.095703125-0.177734375-0.095703125q-0.0546875,0-0.095703125,0.02734375t-0.1162109375,0.1025390625t-0.1162109375,0.1025390625q-0.21875,0.1640625-0.6083984375,0.4853515625t-0.4580078125,0.3759765625q-1.23046875,1.06640625-1.791015625,1.626953125q0.8203125-0.4921875,2.32421875-1.2578125q0.19140625-0.095703125,0.546875-0.2802734375t0.546875-0.2802734375l0.19140625-0.095703125t0.232421875-0.068359375q0-0.13671875-0.21875-0.3623046875t-0.259765625-0.2802734375z M18.978515625,34.65234375l0.02734375,0l-0.02734375,0l-0.0546875,0q-0.205078125,0-0.314453125-0.0546875l-0.21875,0.21875q-0.150390625,0.150390625-0.451171875,0.41015625t-0.341796875,0.287109375q-0.19140625,0.1640625-0.5263671875,0.4580078125t-0.5263671875,0.4443359375q-0.013671875,0.013671875-0.0888671875,0.08203125t-0.1025390625,0.1025390625t-0.0615234375,0.1025390625t-0.0341796875,0.13671875l0,0.02734375q0.287109375-0.19140625,1.3671875-0.984375t1.736328125-1.12109375q-0.2734375,0-0.3828125-0.109375z M16.955078125,39.41015625q0.02734375,0.013671875,0.095703125,0.0751953125t0.13671875,0.1162109375t0.08203125,0.0546875q0.0546875-0.041015625,0.150390625-0.123046875t0.150390625-0.123046875q0.123046875-0.095703125,0.3828125-0.2802734375t0.3828125-0.2802734375q-0.0546875,0.02734375-0.2802734375,0.177734375t-0.3759765625,0.2255859375t-0.30078125,0.1298828125q-0.02734375,0-0.08203125,0.013671875t-0.08203125,0.013671875q-0.341796875,0-0.341796875-0.13671875q0-0.095703125,0.08203125-0.177734375q-0.109375,0-0.109375,0.095703125q0,0.109375,0.109375,0.21875z M17.48828125,39.861328125l0.0546875,0q0.041015625,0,0.0888671875-0.0341796875t0.1162109375-0.1025390625t0.109375-0.095703125q-0.30078125,0.177734375-0.369140625,0.232421875z M18.841796875,39.6015625l-0.150390625,0.08203125q0-0.013671875,0.0615234375-0.0478515625t0.0888671875-0.0341796875q-0.13671875,0.08203125-0.4375,0.2666015625t-0.4375,0.2666015625q0.08203125,0.041015625,0.150390625,0.08203125l0.1025390625,0.0615234375t0.0615234375,0.0205078125t0.21875-0.19140625q0.46484375-0.533203125,0.533203125-0.642578125q-0.109375,0.0546875-0.19140625,0.13671875z M20.099609375,39.7109375q-0.232421875,0.109375-0.232421875,0.150390625q0.123046875-0.068359375,0.232421875-0.150390625q-0.068359375,0.02734375-1.408203125,0.84765625q0.0546875,0.0546875,0.177734375,0.0546875q0.068359375,0,0.1162109375-0.0341796875t0.123046875-0.109375t0.1162109375-0.1025390625q0.4375-0.30078125,0.875-0.65625z M20.482421875,40.83203125q0.02734375,0,0.02734375-0.02734375q-0.02734375,0-0.02734375,0.02734375q0.109375-0.0546875,0.150390625-0.0546875l0.0546875,0q0.0546875,0,0.109375-0.0546875q0.041015625-0.0546875,0.0888671875-0.1025390625t0.109375-0.1025390625t0.1025390625-0.095703125q0.068359375-0.0546875,0.2119140625-0.1845703125t0.2119140625-0.1845703125q0.259765625-0.205078125,0.73828125-0.546875t0.642578125-0.46484375q0.341796875-0.232421875,2.939453125-2.009765625q-0.6015625,0.3828125-1.8388671875,1.17578125t-2.201171875,1.39453125t-1.8525390625,1.12109375q0.08203125,0.041015625,0.2666015625,0.0546875t0.2666015625,0.0546875z M26.921875,36.634765625l-0.109375,0.08203125l0.109375-0.08203125q-3.28125,2.21484375-4.01953125,2.748046875q0.57421875-0.2734375,1.640625-0.7724609375t1.353515625-0.6357421875q0.369140625-0.19140625,0.642578125-0.35546875q0.08203125-0.068359375,0.1298828125-0.1298828125t0.0888671875-0.1845703125l0.0546875-0.1640625q0.02734375-0.08203125,0.0546875-0.259765625t0.0546875-0.24609375z M24.078125,39.833984375q0.0546875-0.02734375,0.08203125-0.068359375t0.0615234375-0.1025390625t0.0478515625-0.0888671875q-0.19140625,0.109375-0.533203125,0.3349609375t-0.533203125,0.3349609375q0.423828125-0.177734375,0.875-0.41015625z M21.166015625,40.75q0.21875-0.109375,0.21875-0.13671875q-0.1640625,0.0546875-0.21875,0.13671875q0.90234375-0.46484375,2.70703125-1.53125q-1.421875,0.669921875-1.927734375,0.970703125q-0.6015625,0.369140625-0.779296875,0.560546875z M21.97265625,40.77734375l-0.02734375,0l0.02734375,0q0.150390625,0,0.533203125-0.3828125q-0.287109375,0.19140625-0.779296875,0.4375q0.013671875,0,0.02734375,0.013671875t0.02734375,0.013671875q0.02734375,0,0.0888671875-0.041015625t0.1025390625-0.041015625z M26.51171875,38.234375q0-0.013671875,0.013671875-0.041015625t0.013671875-0.041015625q-0.615234375,0.41015625-1.654296875,1.0390625q0.123046875,0.013671875,0.30078125-0.0546875t0.30078125-0.13671875t0.3212890625-0.205078125t0.2529296875-0.1640625q0.08203125-0.0546875,0.19140625-0.1025390625t0.177734375-0.1025390625q0.013671875-0.013671875,0.041015625-0.095703125t0.041015625-0.095703125z M26.94921875,35.9921875q-0.888671875,0.560546875-0.998046875,0.669921875q0.041015625-0.02734375,0.3076171875-0.1708984375t0.478515625-0.287109375t0.2119140625-0.2119140625z M25.25390625,36.771484375l0.1640625-0.109375q0.02734375,0-0.341796875,0.232421875q0.041015625-0.041015625,0.177734375-0.123046875q0.095703125-0.068359375,0.451171875-0.3076171875t0.57421875-0.3623046875q0.041015625-0.02734375,0.1640625-0.095703125t0.2119140625-0.123046875t0.1640625-0.13671875t0.0751953125-0.150390625q-0.587890625,0.35546875-1.6201171875,1.080078125t-1.4560546875,0.998046875q0.478515625-0.2734375,1.435546875-0.90234375z M23.900390625,35.7734375l0.560546875-0.396484375l-0.587890625,0.423828125l0.02734375-0.02734375q0.62890625-0.423828125,2.40625-1.544921875q0.02734375-0.013671875,0.13671875-0.0615234375t0.1708984375-0.08203125t0.13671875-0.0888671875t0.1162109375-0.1162109375t0.0546875-0.1298828125l0-0.08203125q0-0.08203125,0.0341796875-0.2529296875t0.0341796875-0.2529296875q-0.35546875,0.287109375-1.09375,0.84765625t-1.09375,0.833984375q-0.177734375,0.13671875-0.5263671875,0.423828125t-0.5126953125,0.423828125q-0.0546875,0.041015625-0.259765625,0.1845703125t-0.3486328125,0.2666015625t-0.1708984375,0.21875q0.150390625-0.095703125,0.451171875-0.2939453125t0.46484375-0.2939453125z M26.89453125,29.525390625l0-0.0546875q-0.79296875,0.546875-0.943359375,0.642578125q0.533203125-0.30078125,0.779296875-0.369140625q0.02734375-0.013671875,0.068359375-0.02734375q0.08203125-0.02734375,0.08203125-0.095703125z M27.017578125,27.5703125q0.013671875,0.02734375-0.095703125,0.1162109375t-0.287109375,0.21875t-0.341796875,0.24609375t-0.3076171875,0.21875t-0.1708984375,0.1162109375q-0.24609375,0.19140625-0.6630859375,0.51953125t-0.5537109375,0.4375q0.396484375-0.24609375,1.8046875-1.09375q0.205078125-0.095703125,0.546875-0.314453125q0.095703125-0.0546875,0.095703125-0.1640625q0-0.02734375-0.013671875-0.1162109375t-0.013671875-0.1298828125l0-0.0546875z M26.94921875,25.7109375q0,0.041015625-0.13671875,0.314453125q-0.095703125,0.13671875-0.505859375,0.478515625q-0.751953125,0.587890625-2.54296875,1.763671875q0.984375-0.51953125,2.21484375-1.28515625q0.02734375-0.013671875,0.314453125-0.1708984375t0.4990234375-0.3076171875t0.2255859375-0.232421875q-0.068359375-0.205078125-0.068359375-0.41015625l0-0.150390625z M29.396484375,23.974609375l0.02734375,0l-0.02734375,0q0.13671875-0.068359375,0.13671875-0.1640625q0-0.041015625-0.02734375-0.1572265625t-0.02734375-0.1708984375l0-0.0546875l0-0.095703125q0-0.0546875,0.013671875-0.1640625t0.013671875-0.1640625q0-0.109375-0.02734375-0.1640625q-0.314453125,0.24609375-0.9296875,0.6904296875t-0.697265625,0.5126953125l0.0546875,0q0.109375,0,0.13671875,0.02734375q0.19140625-0.095703125,0.259765625-0.095703125q0.068359375,0.013671875,0.109375,0.095703125t0.08203125,0.08203125l0.109375-0.0546875q0.1640625-0.123046875,0.341796875-0.123046875q0.041015625,0,0.13671875,0.0205078125t0.13671875,0.0205078125q0.095703125,0,0.177734375-0.041015625z M53.2230078125,35.240234375l0,0.02734375l0-0.02734375q0.0546875,0.109375-0.1982421875,0.2392578125t-0.2529296875,0.2666015625l0,0.0546875q0.02734375,0.1640625,0.02734375,0.505859375q0.02734375,0.109375,0.02734375,0.328125l0,0.341796875q0.02734375,0.109375,0.02734375,0.560546875l0,0.1640625q0.095703125,0.24609375,0.095703125,0.669921875q0,0.287109375-0.02734375,0.341796875t-0.0478515625,0.177734375t-0.0478515625,0.177734375q0.02734375,0.0546875,0.02734375,0.177734375q0,0.13671875-0.068359375,0.451171875t-0.068359375,0.4375q0.109375-0.0546875,0.13671875-0.0546875q0.123046875,0,0.123046875,0.109375q0,0.205078125-0.177734375,0.287109375q0.123046875-0.08203125,0.177734375-0.08203125q0.08203125,0,0.08203125,0.13671875t-0.109375,0.30078125q-0.177734375,0.232421875-0.177734375,0.314453125q0,0.177734375-0.13671875,0.2734375q-0.041015625,0.013671875-0.177734375,0.1025390625t-0.24609375,0.1025390625q-0.328125,0.0546875-0.587890625,0.0546875q-0.095703125,0-0.2939453125-0.013671875t-0.2939453125-0.013671875q-0.0546875-0.02734375-0.19140625-0.02734375l-0.19140625,0q-0.041015625,0-0.1572265625,0.02734375t-0.1572265625,0.02734375l-0.0546875,0q-0.0546875-0.02734375-0.13671875-0.02734375q-0.0546875,0-0.1640625,0.02734375t-0.150390625,0.02734375q-0.02734375,0-0.0615234375-0.013671875t-0.0478515625-0.013671875q-0.1640625-0.0546875-0.21875-0.0546875q-0.041015625,0-0.123046875,0.013671875t-0.1640625,0.013671875q-0.205078125,0.08203125-0.478515625,0.08203125q-0.1640625,0-0.4375-0.0546875q-0.1640625,0.0546875-0.451171875,0.0546875l-0.08203125,0l-0.259765625,0q-0.21875,0-0.30078125-0.08203125l-0.0546875,0q-0.0546875,0-0.1982421875,0.041015625t-0.1982421875,0.041015625q-0.041015625,0-0.0888671875-0.02734375t-0.0751953125-0.02734375q-0.08203125,0.02734375-0.232421875,0.02734375q-0.314453125,0-0.998046875-0.109375q-0.109375,0.0546875-0.259765625,0.0546875q-0.0546875,0-0.1640625-0.0546875l-0.0546875,0q-0.02734375,0-0.0546875-0.013671875t-0.0546875-0.013671875q-0.041015625,0.02734375-0.095703125,0.0546875l-0.109375,0.0546875q-0.123046875,0.0546875-0.19140625,0.0546875l-0.21875,0q-0.150390625,0-0.232421875,0.02734375l-0.08203125,0q-0.08203125,0-0.19140625-0.0546875q-0.0546875,0.0546875-0.205078125,0.0546875t-0.2734375-0.08203125q-0.123046875,0-0.328125-0.0478515625t-0.287109375-0.0615234375q-0.13671875-0.02734375-0.451171875-0.02734375q-0.041015625,0.013671875-0.19140625,0.0615234375t-0.232421875,0.0478515625l-0.0546875,0q-0.2734375-0.08203125-0.833984375-0.08203125q-0.02734375,0-0.0751953125,0.013671875t-0.0615234375,0.013671875l-0.068359375,0l-0.109375-0.0546875q-0.08203125,0.08203125-0.19140625,0.08203125l-0.19140625,0l-0.123046875,0q-0.232421875,0.13671875-0.4921875,0.13671875q-0.0546875,0-0.21875-0.013671875t-0.287109375-0.013671875q-0.041015625,0-0.1162109375-0.013671875t-0.1162109375-0.013671875l-0.08203125,0q-0.013671875,0-0.0478515625,0.013671875t-0.0615234375,0.013671875q-0.109375,0-0.19140625-0.08203125l-0.0546875,0q-0.041015625,0-0.123046875-0.013671875t-0.109375-0.013671875q-0.0546875,0.02734375-0.21875,0.02734375q-0.123046875,0-0.697265625-0.08203125q-0.08203125,0.02734375-0.314453125,0.02734375q-0.19140625,0-0.24609375-0.0546875q-0.21875,0.0546875-0.314453125,0.0546875q-0.0546875,0.013671875-0.2392578125,0.08203125t-0.2666015625,0.08203125q-0.0546875,0.02734375-0.13671875,0.02734375q-0.068359375,0-0.19140625-0.041015625t-0.177734375-0.041015625q-0.013671875,0-0.041015625,0.013671875t-0.041015625,0.013671875t-0.0546875,0.013671875t-0.0546875,0.013671875q-0.0546875,0-0.13671875-0.02734375t-0.13671875-0.02734375q-0.013671875,0-0.1025390625,0.013671875t-0.1025390625,0.013671875q-0.08203125-0.02734375-0.2529296875-0.0341796875t-0.2255859375-0.0205078125q-0.533203125-0.123046875-0.533203125-0.396484375q0-0.08203125,0.02734375-0.13671875l0-0.0546875q0-0.0546875,0.0341796875-0.1708984375t0.0341796875-0.1708984375q0-0.08203125-0.02734375-0.109375q-0.095703125-0.095703125-0.095703125-0.1640625q0-0.02734375,0.095703125-0.314453125q0.08203125-0.24609375,0.08203125-0.533203125q0-0.0546875-0.013671875-0.1640625t-0.013671875-0.1640625q-0.1640625,0.109375-0.259765625,0.109375l-0.02734375,0q0-0.150390625,0.1640625-0.19140625q-0.068359375-0.068359375-0.13671875-0.068359375l-0.0546875,0q0.013671875,0,0.1162109375-0.041015625t0.13671875-0.0751953125t0.0341796875-0.1025390625q0-0.123046875,0.13671875-0.21875q0.08203125-0.095703125,0.314453125-0.177734375t0.3828125-0.08203125q0.095703125,0,0.259765625,0.02734375t0.24609375,0.02734375l0.08203125,0q0.013671875,0,0.0478515625-0.013671875t0.0615234375-0.013671875q0.0546875,0,0.109375,0.0546875q0.123046875-0.08203125,0.287109375-0.08203125q0.041015625-0.02734375,0.259765625-0.0478515625t0.41015625-0.068359375t0.19140625-0.1572265625q0-0.02734375-0.0546875-0.13671875l-0.02734375-0.068359375q0-0.041015625,0.02734375-0.0751953125t0.08203125-0.068359375t0.068359375-0.0478515625q0.068359375-0.041015625,0.0888671875-0.1162109375t0.0751953125-0.1298828125q-0.02734375-0.13671875-0.02734375-0.451171875q-0.287109375,0.19140625-0.396484375,0.19140625q-0.068359375,0-0.109375-0.08203125l-0.02734375-0.0546875q0-0.150390625,0.396484375-0.451171875q0.1640625-0.13671875,0.1640625-0.587890625q0-0.150390625-0.02734375-0.4443359375t-0.02734375-0.3896484375q-0.013671875-0.123046875-0.0615234375-0.546875t-0.0478515625-0.65625l0-0.13671875q0-0.13671875,0.0546875-0.423828125t0.0546875-0.423828125l-0.109375,0q-0.314453125,0-0.314453125-0.13671875q0-0.068359375,0.13671875-0.1640625q0.287109375-0.095703125,0.314453125-0.205078125q-0.02734375-0.0546875-0.02734375-0.328125q0-0.041015625-0.013671875-0.1298828125t-0.013671875-0.1298828125q0-0.0546875,0.013671875-0.1435546875t0.013671875-0.1298828125l0-0.0546875q0-0.068359375,0.041015625-0.259765625t0.041015625-0.2734375t-0.02734375-0.109375q-0.0546875-0.109375-0.0546875-0.65625q-0.0546875-0.21875-0.0546875-0.41015625l0-0.177734375q0-0.041015625-0.013671875-0.1640625t-0.013671875-0.19140625q0-0.259765625,0.0546875-0.533203125l0-0.1640625q0-0.287109375,0.0546875-0.505859375q-0.0546875-0.4921875-0.0546875-0.8203125q-0.0546875-0.328125-0.0546875-0.46484375l0-0.068359375q0-0.08203125,0.041015625-0.287109375t0.041015625-0.30078125q0-0.109375-0.02734375-0.1640625q-0.0546875-0.08203125-0.259765625-0.560546875q-0.095703125-0.19140625-0.30078125-0.19140625l-0.232421875,0q-0.35546875,0-0.35546875-0.109375q0-0.041015625,0.08203125-0.123046875q-0.068359375,0-0.259765625,0.0615234375t-0.2734375,0.0615234375q-0.177734375,0-0.21875-0.150390625q-0.02734375-0.013671875-0.1298828125,0.041015625t-0.1572265625,0.0546875q-0.068359375,0-0.109375-0.041015625q-0.013671875,0-0.041015625-0.013671875t-0.041015625-0.013671875q-0.205078125,0.068359375-0.314453125,0.068359375q-0.177734375,0-0.30078125-0.123046875q-0.08203125-0.08203125-0.08203125-0.35546875q0-0.35546875,0.08203125-0.560546875q0.02734375-0.1640625,0.02734375-0.533203125l0-0.259765625q-0.232421875,0.150390625-0.314453125,0.150390625l-0.02734375,0q-0.109375-0.041015625-0.109375-0.123046875q0-0.095703125,0.1435546875-0.2529296875t0.1982421875-0.1845703125q0.041015625-0.068359375,0.0751953125-0.314453125t0.1298828125-0.3896484375t0.314453125-0.0888671875l0.232421875,0q0.1640625,0,0.21875,0.02734375q0.095703125-0.068359375,0.2666015625-0.095703125t0.2119140625-0.041015625q0.287109375-0.08203125,0.615234375-0.08203125q0.232421875,0,0.314453125,0.02734375q0.013671875,0.013671875,0.1845703125,0.0478515625t0.1982421875,0.0615234375q0.0546875-0.02734375,0.205078125-0.02734375q0.1640625,0,0.19140625,0.02734375q0.0546875-0.02734375,0.24609375-0.02734375q0.205078125,0,0.259765625-0.02734375q0.08203125-0.02734375,0.478515625-0.02734375q0.123046875,0.013671875,0.3349609375-0.0205078125t0.2802734375-0.0341796875q0.1640625,0,0.328125,0.08203125l0.08203125,0q0.0546875,0,0.1640625,0.02734375t0.150390625,0.02734375q0.013671875,0,0.041015625-0.013671875t0.041015625-0.013671875q0.109375-0.0546875,0.21875-0.0546875q0.02734375,0,0.08203125,0.013671875t0.068359375,0.013671875q0.205078125-0.08203125,0.560546875-0.08203125q0.19140625,0,0.35546875,0.0546875l0.08203125,0q0.123046875,0,0.341796875,0.0546875q0.2734375-0.0546875,0.396484375-0.0546875q0.0546875,0.013671875,0.1845703125,0.041015625t0.2529296875,0.0478515625t0.205078125,0.0205078125q0.013671875,0,0.0546875-0.013671875t0.0546875-0.013671875q0.08203125-0.08203125,0.2734375-0.08203125q0.205078125,0,0.259765625,0.02734375q0.1640625-0.0546875,0.2734375-0.0546875q0.150390625,0,0.259765625,0.0546875q0.109375-0.02734375,0.35546875-0.02734375q0.109375,0,0.3623046875,0.013671875t0.3759765625,0.013671875q0.30078125,0,0.46484375-0.0546875q0.150390625-0.0546875,0.328125,0.109375t0.177734375,0.341796875q0,0.109375-0.02734375,0.13671875q0.02734375,0.0546875,0.02734375,0.1640625q0,0.095703125-0.041015625,0.287109375t-0.041015625,0.2734375q0,0.02734375,0.013671875,0.0751953125t0.013671875,0.0751953125q0.0546875-0.02734375,0.177734375-0.02734375q0.21875,0,0.21875,0.1640625q0,0.150390625-0.13671875,0.24609375q0.19140625,0.095703125,0.19140625,0.259765625q0,0.068359375-0.08203125,0.109375t-0.1708984375,0.1572265625t-0.1982421875,0.1708984375q0.0546875,0.109375,0.0546875,0.287109375q0,0.205078125-0.109375,0.2734375q-0.30078125,0.177734375-0.478515625,0.177734375l-0.08203125,0q-0.068359375,0-0.19140625-0.02734375t-0.19140625-0.02734375t-0.232421875,0.0546875q-0.013671875,0-0.0546875,0.013671875t-0.0546875,0.013671875q-0.0546875,0-0.109375-0.0546875q-0.02734375-0.0546875-0.0546875-0.0546875l-0.08203125,0q-0.2734375,0.13671875-0.341796875,0.13671875q-0.109375,0-0.109375-0.177734375q-0.2734375,0.13671875-0.6220703125,0.3828125t-0.3623046875,0.41015625q0.19140625,0,0.19140625,0.08203125q0,0.068359375-0.150390625,0.232421875l-0.150390625,0.1640625q0,0.123046875-0.0751953125,0.3623046875t-0.0888671875,0.3349609375q0.08203125-0.013671875,0.177734375,0.02734375t0.095703125,0.109375q0,0.08203125-0.0546875,0.109375q-0.013671875,0.041015625-0.109375,0.0888671875t-0.109375,0.0888671875q0.0546875,0.4375,0.0546875,0.751953125q0.109375,0.21875,0.109375,0.560546875q0,0.314453125-0.109375,0.751953125q0.02734375-0.02734375,0.109375-0.02734375q0.1640625,0,0.1640625,0.109375q0,0.02734375-0.0546875,0.08203125q-0.041015625,0.068359375-0.19140625,0.150390625q-0.08203125,0.08203125-0.08203125,0.13671875q0,0.02734375,0.013671875,0.08203125t0.013671875,0.08203125l0,0.0546875q0.109375,0.341796875,0.109375,1.23046875q0.0546875,0.4375,0.0546875,0.68359375q0,0.62890625-0.1640625,1.5859375q0.013671875,0,0.13671875-0.068359375t0.19140625-0.068359375q0.109375,0,0.13671875,0.13671875q0.013671875,0.08203125-0.0478515625,0.1845703125t-0.1298828125,0.1708984375t-0.177734375,0.1640625t-0.13671875,0.123046875q0,0.041015625-0.013671875,0.123046875t-0.013671875,0.109375q0,0.177734375,0.041015625,0.4853515625t0.041015625,0.4580078125q0,0.205078125-0.02734375,0.287109375q0,0.1640625,0.013671875,0.51953125t0.013671875,0.51953125q0,0.369140625-0.02734375,0.533203125q0.02734375,0.13671875,0.02734375,0.46484375l0,0.177734375q0,0.1640625,0.0546875,0.1640625l0.109375,0q0.13671875,0.041015625,0.13671875,0.1640625q0,0.0546875-0.0546875,0.109375q0.13671875,0.068359375,0.232421875,0.068359375q0.13671875,0,0.4306640625-0.0751953125t0.4306640625-0.0751953125q0.1640625,0,0.24609375,0.0546875q0.0546875-0.02734375,0.232421875-0.02734375l0.21875,0q0.08203125,0,0.259765625,0.0615234375t0.24609375,0.0615234375l0.02734375,0q0.041015625,0,0.1162109375-0.041015625t0.1025390625-0.0546875q0.0546875-0.02734375,0.150390625-0.02734375q0.08203125,0,0.109375,0.02734375q0.123046875-0.08203125,0.2734375-0.08203125q0.068359375,0.013671875,0.2255859375-0.0068359375t0.1982421875-0.0205078125q0.205078125,0,0.314453125,0.109375q0.0546875-0.0546875,0.1640625-0.0546875l0.13671875,0q0.08203125,0,0.109375-0.02734375q0.095703125-0.13671875,0.478515625-0.13671875l0.205078125,0q0.08203125,0,0.19140625-0.0546875t0.21875-0.0546875q0.08203125,0,0.13671875,0.02734375q0.041015625-0.02734375,0.1025390625-0.0546875t0.095703125-0.0478515625t0.068359375-0.0615234375t0.0478515625-0.095703125q0.0546875-0.287109375,0.19140625-0.35546875q0.0546875-0.0546875,0.150390625-0.0546875l0.0546875,0q0.0546875,0,0.08203125-0.08203125q0.02734375-0.068359375,0.1025390625-0.150390625t0.0888671875-0.109375q0-0.1640625,0.314453125-0.587890625q0.0546875-0.068359375,0.13671875-0.2119140625t0.13671875-0.2119140625q0.013671875-0.109375,0.0546875-0.46484375t0.08203125-0.533203125l0-0.08203125q0-0.396484375,0.123046875-0.765625q-0.232421875,0.08203125-0.232421875-0.08203125q0-0.109375,0.177734375-0.5126953125t0.13671875-0.4716796875q-0.0546875-0.109375-0.0546875-0.1640625q0-0.232421875,0.4375-0.451171875q0.013671875,0,0.0615234375-0.013671875t0.0615234375-0.013671875q0.109375,0,0.328125,0.109375q0.013671875,0,0.041015625,0.0205078125t0.041015625,0.0205078125q0.041015625,0,0.123046875-0.0478515625t0.13671875-0.0751953125l0.109375,0q0.0546875,0,0.1845703125,0.013671875t0.1845703125,0.013671875q0.109375,0,0.13671875-0.02734375q0.08203125-0.0546875,0.24609375-0.0546875q0.0546875,0,0.1845703125,0.013671875t0.1845703125,0.013671875q0.3828125,0,0.615234375,0.1982421875t0.19140625,0.5400390625q0.13671875-0.095703125,0.177734375-0.095703125q0.13671875,0,0.13671875,0.177734375q0,0.1640625-0.109375,0.2734375q-0.02734375,0.041015625-0.0888671875,0.095703125t-0.0888671875,0.095703125t-0.02734375,0.095703125l0,0.0546875l0,0.109375l0,0.0546875q0,0.765625,0.0546875,1.0390625q0.013671875,0,0.1162109375-0.0546875t0.1708984375-0.0546875q0.095703125,0,0.13671875,0.08203125z M52.1292578125,35.9921875q0.013671875,0.02734375-0.1025390625,0.1162109375t-0.2939453125,0.1982421875t-0.3486328125,0.205078125t-0.328125,0.1845703125t-0.1845703125,0.1025390625q-0.109375,0.068359375-0.3212890625,0.2119140625t-0.396484375,0.259765625t-0.3486328125,0.2119140625q-0.30078125,0.150390625-0.505859375,0.21875l-0.109375,0q-0.13671875,0.13671875-0.30078125,0.21875q-0.095703125,0.0546875-0.123046875,0.08203125t-0.0341796875,0.0888671875t-0.0478515625,0.1162109375q0.177734375-0.08203125,1.2099609375-0.51953125t1.5380859375-0.73828125q0.24609375-0.19140625,0.724609375-0.451171875l0-0.109375q0-0.0546875-0.013671875-0.19140625t-0.013671875-0.205078125z M51.1175390625,40.88671875l0.068359375-0.0546875q-0.068359375,0.02734375-0.068359375,0.0546875q0.123046875-0.13671875,0.396484375-0.4169921875t0.396484375-0.4169921875q-0.1640625,0.123046875-0.4990234375,0.4033203125t-0.5126953125,0.4033203125l0.109375,0q0.08203125,0,0.109375,0.02734375z M51.6233984375,39.943359375q0.041015625-0.041015625,0.19140625-0.1298828125t0.232421875-0.1708984375t0.08203125-0.177734375q-0.1640625,0.13671875-0.505859375,0.478515625z M48.9163671875,40.927734375l0.21875-0.150390625q-0.068359375,0-0.21875,0.150390625q1.75-1.09375,2.201171875-1.353515625q0.095703125-0.0546875,0.30078125-0.1708984375t0.369140625-0.1982421875t0.314453125-0.13671875q0.1640625-0.068359375,0.1640625-0.4375l0-0.287109375q-0.0546875-0.21875-0.0546875-0.533203125q0-0.21875,0.02734375-0.2734375q-0.0546875-0.13671875-0.0546875-0.560546875q-0.8203125,0.57421875-3.0419921875,1.845703125t-3.2880859375,2.1328125q0.587890625-0.30078125,1.17578125-0.62890625t1.2919921875-0.751953125t1.107421875-0.669921875t1.271484375-0.7998046875t1.1279296875-0.7177734375q0.0546875-0.02734375,0.109375-0.02734375q0.08203125,0,0.08203125,0.150390625q0,0.1640625-0.08203125,0.328125q-0.314453125,0.369140625-0.95703125,0.724609375q-0.396484375,0.259765625-1.1552734375,0.7177734375t-1.3671875,0.8544921875t-1.1142578125,0.79296875l0.13671875,0l0.259765625,0q0.109375-0.068359375,0.3212890625-0.2255859375t0.3212890625-0.2255859375q0.21875-0.1640625,0.6494140625-0.478515625t0.6630859375-0.478515625q0.095703125-0.068359375,0.423828125-0.2939453125t0.4853515625-0.328125t0.4169921875-0.2529296875t0.4921875-0.24609375q0.1640625-0.0546875,0.314453125-0.0546875q0.205078125,0,0.2734375,0.109375q0.0546875,0.095703125-0.19140625,0.2939453125t-0.5810546875,0.4033203125t-0.3759765625,0.232421875q-1.490234375,1.025390625-2.037109375,1.544921875z M50.0648046875,34.70703125q0.02734375-0.109375,0.1435546875-0.2666015625t0.2939453125-0.3623046875t0.232421875-0.2734375q-0.095703125,0.0546875-0.3076171875,0.1708984375t-0.3076171875,0.1708984375q-0.02734375,0.02734375-0.0341796875,0.2802734375t-0.0205078125,0.2802734375z M50.1468359375,33.5859375q0.19140625-0.13671875,0.21875-0.1640625l-0.0546875,0q-0.109375,0-0.1640625-0.0546875l0,0.08203125l0,0.13671875z M49.9827734375,35.513671875l0-0.02734375l0,0.02734375q0-0.041015625,0.4580078125-0.314453125t0.6220703125-0.35546875q0.02734375-0.02734375,0.1708984375-0.1025390625t0.2802734375-0.1640625t0.2802734375-0.1845703125t0.232421875-0.1845703125t0.0751953125-0.1435546875q-0.08203125,0.041015625-0.51953125,0.2939453125t-0.68359375,0.3759765625q-0.30078125,0.19140625-0.724609375,0.423828125q-0.068359375,0.041015625-0.0888671875,0.0615234375t-0.041015625,0.0546875t-0.02734375,0.0478515625t-0.013671875,0.0751953125t-0.0205078125,0.1162109375z M49.8323828125,36.279296875l0,0.02734375l0-0.02734375l0,0.109375l1.681640625-1.435546875q-0.177734375,0.109375-0.5400390625,0.3212890625t-0.5537109375,0.3212890625l-0.478515625,0.287109375q-0.041015625,0.013671875-0.0615234375,0.0888671875t-0.02734375,0.177734375t-0.0205078125,0.1298828125z M48.6292578125,38.53515625l0.0546875-0.02734375l-0.0546875,0.02734375q-0.013671875,0.013671875-0.02734375,0.0478515625t-0.02734375,0.0478515625l0.478515625-0.287109375q-0.314453125,0.123046875-0.423828125,0.19140625z M46.3050390625,39.21875l-0.02734375,0.0546875q0.02734375-0.02734375,0.02734375-0.0546875q-0.0546875,0.0546875-0.150390625,0.1640625t-0.150390625,0.1640625q0.095703125-0.0546875,0.3076171875-0.1640625t0.3076171875-0.1640625q0-0.068359375-0.13671875-0.068359375q-0.041015625,0-0.177734375,0.068359375z M46.5921484375,39.51953125l-0.287109375,0.13671875l0.369140625-0.1640625q-0.02734375,0-0.08203125,0.02734375q-0.02734375,0.013671875-0.19140625,0.1025390625t-0.205078125,0.1162109375t-0.19140625,0.109375t-0.1982421875,0.1162109375t-0.177734375,0.109375t-0.19140625,0.123046875t-0.1640625,0.1298828125t-0.1708984375,0.1435546875t-0.150390625,0.1435546875t-0.150390625,0.1640625q0.779296875-0.396484375,3.4453125-1.982421875q-0.095703125,0.041015625-0.3623046875,0.1162109375t-0.4033203125,0.1572265625q-0.19140625,0.08203125-0.51953125,0.2529296875t-0.369140625,0.1982421875z M45.8265234375,40.61328125l-0.109375,0.08203125q0.0546875-0.02734375,0.109375-0.08203125l-0.41015625,0.24609375q0.068359375,0.013671875,0.1298828125-0.013671875t0.1572265625-0.123046875t0.123046875-0.109375z M49.9417578125,37.00390625l0.423828125-0.259765625q-0.150390625,0.095703125-0.423828125,0.259765625q1.408203125-0.806640625,1.94140625-1.17578125q-0.328125,0.19140625-0.970703125,0.587890625t-0.970703125,0.587890625z M49.9144140625,36.689453125q0.587890625-0.35546875,0.587890625-0.3828125q-0.423828125,0.24609375-0.587890625,0.3828125q1.3671875-0.8203125,1.859375-1.09375q0.0546875-0.041015625,0.13671875-0.0888671875t0.123046875-0.0751953125t0.0751953125-0.08203125t0.0478515625-0.13671875l0-0.314453125l0-0.13671875q-0.369140625,0.328125-2.2421875,1.927734375z M51.5687109375,33.298828125l-0.02734375,0l0.02734375,0.041015625q0.02734375,0,0.02734375-0.041015625l-0.02734375,0q-0.02734375,0.013671875-0.0615234375,0.0341796875t-0.0478515625,0.02734375t-0.0341796875,0.013671875t-0.02734375,0.0205078125t-0.0205078125,0.02734375l-0.0341796875,0.0341796875t-0.0341796875,0.041015625l-0.041015625,0.0615234375q-0.0546875,0.068359375-0.1572265625,0.1982421875t-0.1572265625,0.1982421875q-0.095703125,0.123046875-0.2939453125,0.3896484375t-0.2939453125,0.3896484375q0.205078125-0.109375,0.4375-0.24609375t0.51953125-0.30078125t0.451171875-0.259765625q0.041015625-0.02734375,0.13671875-0.0888671875t0.13671875-0.0888671875q0.0546875-0.02734375,0.0546875-0.08203125l0-0.109375l0-0.0546875q-0.02734375-0.1640625-0.0546875-0.1640625l-0.13671875,0l-0.1640625,0q-0.095703125,0-0.177734375-0.041015625z M45.1839453125,39.2734375l-0.08203125,0.0546875q0-0.02734375,0.08203125-0.0546875q-0.013671875,0-0.0546875-0.013671875t-0.0546875-0.013671875q-0.150390625,0-0.30078125,0.0888671875t-0.3212890625,0.24609375t-0.2392578125,0.1982421875q-0.259765625,0.19140625-0.8134765625,0.5400390625t-0.8134765625,0.5400390625q0.0546875,0.041015625,0.533203125-0.2734375q0.396484375-0.24609375,0.642578125-0.423828125q0.24609375-0.1640625,0.7177734375-0.451171875t0.7041015625-0.4375z M43.4202734375,39.21875l-0.02734375,0l0.02734375,0q-0.109375,0.0546875-0.21875,0.0546875q-0.041015625,0.150390625-0.19140625,0.30078125q-0.1640625,0.19140625-0.505859375,0.533203125q0.916015625-0.6015625,1.44921875-0.861328125q-0.0546875-0.02734375-0.13671875-0.02734375l-0.287109375,0l-0.109375,0z M41.2054296875,40.83203125l0.341796875-0.2734375q-0.02734375,0.013671875-0.0615234375,0.041015625t-0.1162109375,0.0888671875t-0.1298828125,0.1025390625t-0.0341796875,0.041015625q1.107421875-0.833984375,1.599609375-1.44921875q-1.353515625,0.861328125-2.2421875,1.39453125q0.423828125,0,0.642578125,0.0546875z M38.4710546875,41.009765625l0.02734375,0l-0.02734375,0q0.46484375-0.2734375,1.708984375-1.271484375q-1.33984375,0.970703125-1.791015625,1.216796875q0.02734375,0.013671875,0.041015625,0.02734375t0.041015625,0.02734375z M35.5316015625,40.859375l0.02734375,0l-0.02734375,0q0.109375-0.08203125,0.41015625-0.205078125t0.341796875-0.150390625q0.259765625-0.1640625,1.23046875-0.724609375q0.314453125-0.1640625,0.916015625-0.51953125t0.90234375-0.51953125q-1.873046875,0.943359375-2.3515625,1.23046875q-0.1640625,0.08203125-0.478515625,0.2802734375t-0.46484375,0.2802734375q-0.328125,0.19140625-0.423828125,0.2734375l-0.13671875,0.0546875l0.0546875,0z M37.5413671875,37.974609375l0.505859375-0.3828125q-0.505859375,0.35546875-0.505859375,0.3828125q1.4765625-1.080078125,2.4609375-1.640625q0.369140625-0.205078125,0.95703125-0.615234375q0.150390625-0.150390625,0.21875-0.150390625q0.041015625,0.02734375,0.068359375,0.02734375q0-0.041015625,0.013671875-0.109375t0.013671875-0.109375q-0.068359375,0.095703125-0.314453125,0.232421875t-0.2734375,0.1640625q-0.095703125,0.0546875-0.2939453125,0.177734375t-0.2939453125,0.177734375q-0.205078125,0.123046875-0.587890625,0.3828125t-0.587890625,0.3828125q-0.177734375,0.123046875-0.560546875,0.3759765625t-0.560546875,0.3759765625q-0.505859375,0.341796875-0.560546875,0.451171875q0.109375-0.02734375,0.30078125-0.123046875z M41.5745703125,39.123046875q-0.02734375,0-0.0615234375-0.013671875t-0.0478515625-0.013671875q-0.02734375,0-0.0478515625,0.0205078125l-0.0615234375,0.0615234375t-0.08203125,0.068359375q-0.08203125,0.0546875-0.2392578125,0.177734375t-0.2392578125,0.177734375q-0.109375,0.08203125-0.3349609375,0.2666015625t-0.3349609375,0.2666015625q0.095703125-0.0546875,0.697265625-0.396484375t0.916015625-0.546875q-0.02734375,0-0.1640625-0.068359375z M42.3265234375,39.24609375q-0.1640625,0.041015625-0.369140625,0.177734375t-0.4443359375,0.3349609375t-0.3349609375,0.2666015625q-0.1640625,0.109375-1.025390625,0.724609375q0.259765625-0.1640625,1.0595703125-0.6630859375t1.2373046875-0.7861328125q-0.068359375,0-0.123046875-0.0546875z M41.3011328125,38.453125l0-0.02734375l0,0.02734375l0-0.08203125q-0.0546875,0.0546875-0.095703125,0.0546875q0.02734375,0.02734375,0.095703125,0.02734375z M41.2464453125,34.92578125l-0.150390625,0.109375q0.150390625-0.08203125,0.150390625-0.109375q-0.19140625,0.13671875-0.5673828125,0.423828125t-0.5810546875,0.423828125l0.24609375-0.1640625q0.24609375-0.177734375,0.46484375-0.30078125t0.341796875-0.123046875q0.041015625,0,0.095703125,0.0546875l0-0.314453125z M41.0960546875,35.828125l-0.0546875-0.0546875q0-0.013671875,0.109375,0.109375z M41.2464453125,36.361328125l-0.287109375,0.19140625q0.259765625-0.1640625,0.287109375-0.19140625q-0.150390625,0.095703125-0.916015625,0.6083984375t-1.0048828125,0.6767578125t-0.8818359375,0.6083984375t-0.9912109375,0.7177734375t-0.833984375,0.6630859375t-0.8955078125,0.7587890625q1.517578125-0.95703125,4.51171875-2.419921875q0.08203125-0.041015625,0.451171875-0.232421875t0.587890625-0.259765625q0-0.02734375,0.013671875-0.0888671875t0.013671875-0.0888671875q0-0.109375-0.0478515625-0.3623046875t-0.0478515625-0.3623046875q0-0.095703125,0.041015625-0.21875z M38.0198828125,40.859375l0.13671875-0.08203125q-0.0546875,0-0.13671875,0.08203125q0.341796875-0.177734375,0.9296875-0.587890625q-0.150390625,0.095703125-0.4580078125,0.2939453125t-0.4716796875,0.2939453125z M36.8441015625,40.83203125q0.150390625,0,0.3486328125-0.109375t0.4375-0.287109375t0.3076171875-0.21875q0.1640625-0.109375,0.505859375-0.3212890625t0.505859375-0.3212890625q-1.162109375,0.669921875-1.203125,0.697265625q-0.068359375,0.041015625-0.2734375,0.19140625t-0.3828125,0.259765625t-0.24609375,0.109375z M40.0023046875,40.50390625q-0.30078125,0.205078125-0.751953125,0.451171875q0.123046875-0.02734375,0.2392578125-0.095703125t0.287109375-0.19140625t0.2255859375-0.1640625z M39.0862890625,35.431640625q0.0546875-0.041015625,0.328125-0.1845703125t0.587890625-0.314453125t0.62890625-0.35546875t0.4990234375-0.341796875t0.1435546875-0.2255859375q-0.369140625,0.24609375-1.1005859375,0.7177734375t-1.0869140625,0.7041015625z M41.3831640625,32.3828125l0,0.02734375l0-0.02734375l-0.0546875,0.0546875q0.02734375,0,0.0546875,0.02734375l0-0.08203125z M41.3284765625,31.1796875l-0.177734375,0.13671875q0.177734375-0.109375,0.177734375-0.13671875q-0.232421875,0.177734375-1.23046875,0.8818359375t-1.517578125,1.1279296875q-0.0546875,0.041015625-0.2392578125,0.1982421875t-0.2666015625,0.232421875t-0.21875,0.2119140625t-0.232421875,0.259765625t-0.1640625,0.24609375q0.62890625-0.4921875,2.54296875-1.55859375q0.13671875-0.08203125,0.423828125-0.2392578125t0.423828125-0.2392578125q0.505859375-0.205078125,0.533203125-0.314453125q-0.02734375-0.123046875-0.0341796875-0.423828125t-0.0205078125-0.3828125z M37.2952734375,34.953125l0.08203125-0.02734375q-0.08203125,0-0.08203125,0.02734375q0.1640625-0.013671875,0.3828125-0.1025390625t0.314453125-0.1435546875t0.3828125-0.24609375l0.287109375-0.177734375q1.435546875-0.984375,2.078125-1.4765625q-1.544921875,1.01171875-2.638671875,1.5859375q-0.08203125,0.041015625-0.30078125,0.13671875t-0.3486328125,0.19140625t-0.1572265625,0.232421875z M37.2132421875,34.201171875l0.0546875-0.08203125l-0.0546875,0.08203125q0.177734375-0.287109375,0.751953125-0.806640625q-0.0546875,0.02734375-0.24609375,0.0751953125t-0.3349609375,0.109375t-0.1708984375,0.1162109375l0,0.08203125q0,0.041015625-0.013671875,0.1435546875t-0.013671875,0.1435546875q0,0.08203125,0.02734375,0.13671875z M37.3499609375,35.7734375q0.505859375-0.451171875,1.572265625-1.353515625q-0.90234375,0.587890625-1.353515625,0.73828125q-0.0546875,0.02734375-0.1162109375,0.041015625t-0.08203125,0.02734375t-0.0341796875,0.0478515625t-0.013671875,0.1025390625q0.02734375,0.0546875,0.02734375,0.19140625l0,0.205078125z M41.3558203125,32.7109375q-3.130859375,2.666015625-3.869140625,3.30859375q1.353515625-0.90234375,3.048828125-1.900390625q0.109375-0.068359375,0.3349609375-0.2119140625t0.3349609375-0.2119140625q0.041015625-0.02734375,0.0546875-0.1572265625t0.041015625-0.1708984375q0.02734375-0.08203125,0.0341796875-0.341796875t0.0205078125-0.314453125z M41.2737890625,30.455078125q0.013671875,0.02734375-0.423828125,0.3486328125t-0.9296875,0.669921875t-0.533203125,0.3759765625q-0.21875,0.150390625-1.955078125,1.44921875q0.62890625-0.19140625,1.818359375-0.970703125q0.314453125-0.21875,0.8408203125-0.615234375t0.6767578125-0.505859375q0.51953125-0.314453125,0.533203125-0.423828125q0-0.041015625-0.013671875-0.1640625t-0.013671875-0.1640625z M42.1624609375,22.83984375l0.02734375,0l-0.02734375,0q-0.095703125-0.013671875-0.24609375,0.0751953125t-0.3349609375,0.2529296875t-0.2255859375,0.19140625q0.478515625-0.287109375,0.916015625-0.51953125q0-0.041015625-0.0546875-0.041015625q-0.02734375,0.013671875-0.0546875,0.041015625z M41.6019140625,22.798828125l-0.0546875,0.041015625l0.0546875-0.041015625q-0.642578125,0.35546875-1.3466796875,0.806640625t-1.5654296875,1.0390625t-1.3125,0.875l-0.068359375,0.0341796875t-0.0615234375,0.02734375t-0.041015625,0.0205078125t-0.02734375,0.0205078125t-0.013671875,0.0205078125t-0.0068359375,0.041015625q0,0.068359375,0.02734375,0.123046875q0.109375,0.21875,0.109375,0.3828125q0.02734375,0.08203125,0.02734375,0.259765625q0,0.123046875-0.02734375,0.396484375t-0.02734375,0.3828125q0.95703125-0.751953125,2.8779296875-2.2353515625t2.8642578125-2.2216796875q-0.697265625,0.259765625-2.078125,1.17578125q-0.423828125,0.287109375-1.28515625,0.875t-1.28515625,0.888671875q-0.013671875,0.013671875-0.1435546875,0.1162109375t-0.19140625,0.1435546875t-0.1845703125,0.1162109375t-0.21875,0.109375t-0.19140625,0.0478515625q-0.1640625,0-0.1640625-0.0546875q0-0.068359375,0.123046875-0.1982421875t0.177734375-0.1572265625q3.25390625-2.40625,4.115234375-3.0625q-0.02734375,0.02734375-0.08203125,0.02734375z M45.3890234375,24.15234375l0,0.02734375l0-0.02734375z M45.4437109375,24.20703125l-0.02734375-0.02734375q0.02734375,0,0.02734375,0.02734375z M44.5140234375,23.22265625l0,0.02734375l0-0.02734375q0-0.041015625-0.8203125,0.3828125t-0.970703125,0.51953125q-1.2578125,0.697265625-2.65234375,1.61328125q-1.845703125,1.203125-2.392578125,1.572265625q-0.068359375,0.041015625-0.19140625,0.1298828125t-0.19140625,0.1298828125q0,0.02734375,0.013671875,0.1162109375t0.013671875,0.1298828125l0,0.0546875q0.0546875,0.1640625,0.0546875,0.341796875q0,0.314453125-0.0546875,0.533203125q1.271484375-0.875,2.625-1.708984375q0.6015625-0.369140625,1.326171875-0.90234375q0.123046875-0.08203125,0.1708984375-0.35546875t0.1572265625-0.369140625q-0.02734375-0.0546875-0.02734375-0.1640625q0-0.08203125,0.0341796875-0.150390625t0.1162109375-0.1298828125t0.1298828125-0.095703125t0.1572265625-0.0888671875t0.123046875-0.068359375q0.232421875-0.177734375,0.396484375-0.177734375q0.08203125,0,0.13671875,0.02734375q0.08203125-0.013671875,0.2119140625-0.1025390625t0.1845703125-0.1162109375t0.13671875-0.02734375q0.13671875,0,0.2734375,0.13671875q0.068359375-0.013671875,0.1435546875-0.068359375t0.1708984375-0.1435546875t0.13671875-0.1162109375q0.068359375-0.068359375,0.2255859375-0.2119140625t0.2255859375-0.2119140625t0.0888671875-0.13671875t0.02734375-0.1640625t0.0205078125-0.177734375z M37.3226171875,30.455078125q0.615234375-0.423828125,1.83203125-1.3193359375t1.83203125-1.3193359375q-1.09375,0.62890625-1.900390625,1.1484375q-0.46484375,0.2734375-1.203125,0.779296875q-0.57421875,0.287109375-0.615234375,0.396484375q0.0546875,0.1640625,0.0546875,0.314453125z M37.2952734375,29.1015625q0.02734375-0.02734375,0.02734375-0.0546875q-0.02734375,0.02734375-0.02734375,0.0546875z M38.9495703125,28.650390625l0.1640625-0.109375q0-0.013671875-0.1025390625,0.0546875t-0.2119140625,0.13671875l-0.109375,0.068359375q0.068359375-0.041015625,0.259765625-0.150390625q0.19140625-0.123046875,0.6357421875-0.369140625t0.7724609375-0.451171875t0.57421875-0.4375q-0.341796875,0.109375-1.421875,0.765625q-0.24609375,0.150390625-0.7177734375,0.4580078125t-0.5263671875,0.3486328125q-0.02734375,0.013671875-0.30078125,0.177734375t-0.4921875,0.314453125t-0.205078125,0.205078125q0.51953125-0.35546875,1.681640625-1.01171875z M37.3226171875,31.685546875l0,0.08203125q0.35546875-0.287109375,1.1962890625-0.916015625t1.435546875-1.1279296875t1.0869140625-1.0322265625q-0.3828125,0.21875-1.1552734375,0.669921875t-1.1689453125,0.669921875q-0.724609375,0.396484375-1.203125,0.697265625q-0.19140625,0.109375-0.19140625,0.369140625q0,0.068359375,0.013671875,0.1982421875t0.013671875,0.1845703125q0,0.150390625-0.02734375,0.205078125z M41.3831640625,28.71875l-0.13671875,0.1640625l0.13671875-0.1640625q-0.259765625,0.341796875-0.6630859375,0.7109375t-0.6494140625,0.5673828125t-0.8408203125,0.6357421875t-0.7041015625,0.51953125q0.314453125-0.19140625,0.9501953125-0.546875t0.9501953125-0.546875q0.123046875-0.068359375,0.3896484375-0.2255859375t0.3896484375-0.2255859375q0.0546875-0.0546875,0.1162109375-0.341796875t0.0615234375-0.46484375l0-0.08203125z M41.2464453125,28.03515625l0,0.02734375l0-0.02734375q-0.013671875-0.02734375-0.041015625-0.0546875q-0.150390625,0.095703125-0.888671875,0.6357421875t-1.1484375,0.8271484375q0.205078125-0.109375,0.587890625-0.3349609375t0.587890625-0.3349609375q0.3828125-0.24609375,0.697265625-0.396484375q0.013671875-0.013671875,0.041015625-0.02734375q0.13671875-0.08203125,0.150390625-0.1640625l0-0.0546875z M41.2464453125,26.8046875q0,0.041015625-0.2392578125,0.1845703125t-0.546875,0.3076171875t-0.3349609375,0.177734375q0.669921875-0.3828125,0.916015625-0.3828125q0.109375,0,0.1640625,0.02734375q0-0.19140625,0.041015625-0.314453125z M45.5257421875,24.20703125l-0.0546875,0l0.0546875,0z M43.6800390625,22.798828125q-0.123046875,0-0.2119140625,0.02734375t-0.13671875,0.0546875t-0.1572265625,0.1162109375t-0.19140625,0.1435546875q-0.669921875,0.533203125-1.244140625,0.95703125q-0.328125,0.259765625-0.9638671875,0.7451171875t-0.9638671875,0.7314453125q2.734375-1.708984375,3.896484375-2.296875q0.478515625-0.259765625,0.779296875-0.35546875q0.08203125-0.041015625,0.08203125-0.0546875q0-0.0546875-0.41015625-0.123046875q-0.109375,0.0546875-0.478515625,0.0546875z M40.8773046875,22.798828125l0.02734375,0l-0.02734375,0q-0.08203125,0-0.21875-0.02734375t-0.205078125-0.02734375q-0.095703125,0-0.24609375,0.095703125q-0.232421875,0.19140625-0.7109375,0.533203125t-0.724609375,0.51953125q-0.7109375,0.533203125-1.28515625,1.0390625l-0.13671875,0.123046875q-0.150390625,0.109375-0.2529296875,0.2119140625t-0.0888671875,0.1435546875q0.669921875-0.396484375,2.037109375-1.3125t2.10546875-1.353515625l-0.02734375,0q-0.041015625,0-0.123046875,0.02734375t-0.123046875,0.02734375z M34.4105078125,24.015625q0.123046875-0.205078125,0.3759765625-0.587890625t0.3759765625-0.587890625q-0.013671875,0.013671875-0.2529296875,0.1298828125t-0.369140625,0.2119140625t-0.1572265625,0.177734375q0.0546875,0.21875,0.0546875,0.369140625q0,0.0546875-0.013671875,0.150390625t-0.013671875,0.13671875z M35.8323828125,22.689453125q-0.068359375,0.041015625-0.150390625,0.0546875t-0.1298828125,0.041015625t-0.1025390625,0.109375q-0.08203125,0.150390625-0.341796875,0.533203125q-0.19140625,0.314453125-0.533203125,0.806640625q0.259765625-0.1640625,1.09375-0.62890625t1.2578125-0.73828125q-0.150390625,0-0.24609375-0.095703125q-0.232421875,0.02734375-0.259765625,0.02734375q-0.08203125,0-0.2939453125-0.0615234375t-0.2939453125-0.0478515625z M37.8284765625,24.2890625l-0.259765625,0.19140625q0.123046875-0.08203125,0.259765625-0.19140625q-0.328125,0.24609375-0.79296875,0.533203125q-0.1640625,0.13671875-0.1640625,0.1640625q0,0.0546875,0.02734375,0.13671875q0.123046875-0.13671875,0.2734375-0.2734375t0.3623046875-0.314453125t0.2939453125-0.24609375z M37.3226171875,32.24609375l0,0.0546875q0.150390625-0.08203125,0.724609375-0.3759765625t0.833984375-0.4375t0.7109375-0.4033203125t0.7998046875-0.5126953125t0.6494140625-0.5400390625q-1.818359375,1.0390625-1.900390625,1.09375q-0.287109375,0.150390625-1.3125,0.751953125q-0.013671875,0.013671875-0.109375,0.0546875t-0.13671875,0.068359375t-0.109375,0.068359375t-0.1025390625,0.0888671875t-0.0478515625,0.0888671875z M38.7718359375,31.958984375q-0.84765625,0.4921875-1.06640625,0.615234375q-0.041015625,0.02734375-0.13671875,0.0751953125t-0.109375,0.068359375t-0.0546875,0.068359375t-0.0478515625,0.1025390625t-0.0068359375,0.1640625q0.232421875-0.177734375,0.7041015625-0.546875t0.7177734375-0.546875z M37.3499609375,37.16796875l0,0.109375q1.203125-0.765625,2.43359375-1.654296875q0.177734375-0.109375,0.4921875-0.3349609375t0.4921875-0.3349609375q0.02734375-0.013671875,0.1298828125-0.0888671875t0.1572265625-0.123046875t0.109375-0.123046875t0.041015625-0.1435546875q-1.50390625,0.90234375-2.255859375,1.326171875q-0.232421875,0.123046875-0.6767578125,0.3896484375t-0.6767578125,0.3896484375q-0.24609375,0.150390625-0.24609375,0.259765625l0,0.19140625l0,0.13671875z M35.1077734375,39.30078125l-0.587890625,0l-0.19140625,0q0.0546875,0.21875,0.0546875,0.35546875q0,0.259765625-0.0546875,0.533203125q0.587890625-0.30078125,1.33984375-0.861328125q-0.02734375,0-0.068359375,0.013671875t-0.068359375,0.013671875q-0.068359375,0-0.2119140625-0.02734375t-0.2119140625-0.02734375z M34.2737890625,40.982421875l0.02734375,0l-0.02734375,0q0.0546875-0.02734375,0.2734375-0.02734375q0.205078125,0,0.259765625,0.0546875q0.068359375-0.13671875,0.109375-0.177734375q0.109375-0.13671875,0.328125-0.35546875q0.396484375-0.396484375,1.408203125-1.17578125q1.859375-1.435546875,4.525390625-3.2265625q-0.21875,0.041015625-0.4033203125,0.1298828125t-0.5126953125,0.3349609375t-0.341796875,0.259765625q-0.095703125,0.0546875-0.998046875,0.7109375q-0.150390625,0.095703125-0.7041015625,0.396484375t-0.8408203125,0.51953125q-0.123046875,0.08203125-0.423828125,0.369140625t-0.505859375,0.396484375q-0.505859375,0.24609375-0.642578125,0.35546875q-0.08203125,0.0546875-0.2529296875,0.1708984375t-0.2529296875,0.1708984375q-0.62890625,0.4375-0.916015625,0.587890625q-0.109375,0.08203125-0.109375,0.505859375z M44.3499609375,39.328125l-0.341796875,0.19140625q0.0546875,0,0.341796875-0.19140625q-0.779296875,0.423828125-2.4609375,1.4765625q0.0546875-0.013671875,0.232421875-0.02734375t0.2734375-0.08203125q0.123046875-0.08203125,0.3623046875-0.2529296875t0.3623046875-0.2529296875q0.779296875-0.505859375,1.23046875-0.861328125z M44.2952734375,40.955078125l-0.02734375,0l0.02734375,0q0.0546875-0.02734375,0.1025390625-0.08203125t0.095703125-0.1435546875t0.0751953125-0.1162109375q0.0546875-0.08203125,0.423828125-0.451171875q0.177734375-0.205078125,0.533203125-0.5400390625t0.451171875-0.4306640625q-0.08203125-0.0546875-0.3759765625,0.109375t-0.68359375,0.4443359375t-0.4033203125,0.2802734375q-1.09375,0.68359375-1.50390625,0.95703125q0.095703125,0,0.259765625-0.02734375t0.259765625-0.02734375q0.1640625,0.0546875,0.314453125,0.0546875l0.0546875,0q0.109375,0,0.13671875,0.02734375q0.08203125-0.0546875,0.259765625-0.0546875z M46.5101171875,40.982421875q0.041015625-0.013671875,0.2119140625-0.0341796875t0.2529296875-0.0888671875q0.068359375-0.0546875,0.1982421875-0.150390625t0.1982421875-0.150390625q0.505859375-0.369140625,1.06640625-0.697265625q2.091796875-1.298828125,2.65234375-1.681640625q-2.70703125,1.66796875-4.703125,2.802734375l0.123046875,0z M48.2464453125,40.88671875q0.02734375,0,0.068359375-0.0341796875t0.041015625-0.0478515625q-0.02734375,0.02734375-0.109375,0.08203125q0.205078125,0.068359375,0.21875,0.068359375q0.041015625,0,0.13671875-0.095703125q0.30078125-0.341796875,0.669921875-0.587890625q0.587890625-0.478515625,1.94140625-1.39453125q-0.46484375,0.259765625-0.95703125,0.5947265625t-1.09375,0.765625t-0.916015625,0.6494140625z M50.0374609375,40.927734375l0.02734375-0.041015625l-0.02734375,0.041015625q0.041015625-0.041015625,0.123046875-0.0751953125t0.123046875-0.0751953125t0.451171875-0.3828125q0.369140625-0.369140625,0.779296875-0.73828125q-0.642578125,0.369140625-2.009765625,1.23046875l0.08203125,0q0.068359375,0,0.232421875,0.0205078125t0.21875,0.0205078125z M51.8011328125,40.66796875l0.02734375-0.02734375l-0.0546875,0.0546875l0.02734375-0.02734375q0.19140625-0.109375,0.232421875-0.1640625t0.041015625-0.232421875q-0.341796875,0.341796875-0.505859375,0.533203125q0.041015625-0.02734375,0.1162109375-0.068359375t0.1162109375-0.068359375z"/><path fill="#" d=""/></svg>
